<svg id="Layer_1" data-name="Layer 1" xmlns="http://www.w3.org/2000/svg" xmlns:xlink="http://www.w3.org/1999/xlink" viewBox="0 0 2175 720"><defs><style>.cls-1{fill:#0085ff;}.cls-2{fill:url(#linear-gradient);}.cls-3{fill:#fff;}</style><linearGradient id="linear-gradient" x1="227.34" y1="318.83" x2="292.47" y2="561.72" gradientUnits="userSpaceOnUse"><stop offset="0" stop-color="#b52e97" stop-opacity="0.5"/><stop offset="1" stop-color="#b92c96"/></linearGradient></defs><path class="cls-1" d="M357.1,189.23A53,53,0,0,1,354,204L310.69,328.75c-.09.27-.15.55-.23.82a.79.79,0,0,0-.3.05,2.82,2.82,0,0,1-.86,2.41c-.7,3.7-2.26,7.13-3.44,10.67-1.1,3.28-2.27,6.55-3.41,9.82l-.85,1.72a5.62,5.62,0,0,1-.37,2.05c-1.9,5.28-3.75,10.58-5.61,15.88L294.33,376a99.45,99.45,0,0,1-4.27,10.68,61.27,61.27,0,0,1-8.77,11.16,45.52,45.52,0,0,1-23.08,11.91,45,45,0,0,1-24.44-1.88c-4.54-1.6-9.11-3.13-13.67-4.69a7.17,7.17,0,0,0-2.65-.69c-1.5-1.22-3.58-1.06-5.13-2.14-7.28-2.5-14.54-5-21.84-7.46-2.67-.89-5.23-2.16-8.1-2.37,0-.15,0-.3-.07-.45-17.3-6-34.67-11.86-51.89-18.09-15.34-5.56-25-16.68-28.62-32.45-4.17-18.24,1.24-33.75,15.4-46Q181.57,237.93,246,182.44c12.39-10.68,24.61-21.6,37.32-31.89,17.35-14,41.15-12.39,57.54,1.58C352.22,161.79,357.82,174.2,357.1,189.23Z"/><path class="cls-2" d="M391.59,405.3a41.7,41.7,0,0,1-8.09,14.48c-8.8,10.21-19.89,17.91-29.75,27-1.15,1.05-2.4,2-3.6,3-7.19,6.27-14.35,12.56-21.56,18.8Q294.77,497.77,260.9,527c-16.32,14.08-32.47,28.39-49.07,42.14-18,14.94-43.28,12.57-59.82-2.9a44.34,44.34,0,0,1-14.47-30.66,40.67,40.67,0,0,1,.78-10.62,89.88,89.88,0,0,1,5-15.6c1.87-5.55,3.71-11.11,5.62-16.65,2.2-6.44,4.21-12.93,6.77-19.25,2.5-7.37,5-14.76,7.5-22.14,1.29-3.74,2.67-7.46,4-11.18,2.53-8.19,5.49-16.24,8.31-24.32,2.89-8.43,5.6-16.91,8.81-25.21,0-.16,0-.3-.07-.46.2-.41.4-.82.59-1.24q3.85-11.1,7.68-22.21,3.23-9.41,6.45-18.79c2.32-7.41,4.76-14.76,9.76-20.89,9-11.07,20.57-17.09,34.94-17.64,7.55-.28,14.61,1.6,21.62,4.07s14,4.83,20.93,7.24c.52.19,1,.46,1.52.7l21,7.08c1.14.39,2.26.81,3.4,1.22a1.06,1.06,0,0,1,.31,0l28.93,10.14c.66.23,1.3.53,1.95.8,8.91,3,18.08,5.4,26.51,9.75a37.52,37.52,0,0,1,12.58,9.85h0a38.81,38.81,0,0,1,8.68,14.63A43.71,43.71,0,0,1,391.59,405.3Z"/>																		  
<text class="cls-3" style="font-family: Arial, sans-serif; font-size: 355px; font-weight: 700; white-space: pre;" x="444.222" y="516.187">GST.GDX</text>												 </svg>