<svg id="Layer_1" data-name="Layer 1" xmlns="http://www.w3.org/2000/svg" xmlns:xlink="http://www.w3.org/1999/xlink" viewBox="0 0 2175 720"><defs><style>.cls-1{fill:#0085ff;}.cls-2{fill:url(#linear-gradient);}</style><linearGradient id="linear-gradient" x1="227.34" y1="318.83" x2="292.47" y2="561.72" gradientUnits="userSpaceOnUse"><stop offset="0" stop-color="#b52e97" stop-opacity="0.5"/><stop offset="1" stop-color="#b92c96"/></linearGradient></defs><path class="cls-1" d="M357.1,189.23A53,53,0,0,1,354,204L310.69,328.75c-.09.27-.15.55-.23.82a.79.79,0,0,0-.3.05,2.82,2.82,0,0,1-.86,2.41c-.7,3.7-2.26,7.13-3.44,10.67-1.1,3.28-2.27,6.55-3.41,9.82l-.85,1.72a5.62,5.62,0,0,1-.37,2.05c-1.9,5.28-3.75,10.58-5.61,15.88L294.33,376a99.45,99.45,0,0,1-4.27,10.68,61.27,61.27,0,0,1-8.77,11.16,45.52,45.52,0,0,1-23.08,11.91,45,45,0,0,1-24.44-1.88c-4.54-1.6-9.11-3.13-13.67-4.69a7.17,7.17,0,0,0-2.65-.69c-1.5-1.22-3.58-1.06-5.13-2.14-7.28-2.5-14.54-5-21.84-7.46-2.67-.89-5.23-2.16-8.1-2.37,0-.15,0-.3-.07-.45-17.3-6-34.67-11.86-51.89-18.09-15.34-5.56-25-16.68-28.62-32.45-4.17-18.24,1.24-33.75,15.4-46Q181.57,237.93,246,182.44c12.39-10.68,24.61-21.6,37.32-31.89,17.35-14,41.15-12.39,57.54,1.58C352.22,161.79,357.82,174.2,357.1,189.23Z"/><path class="cls-2" d="M391.59,405.3a41.7,41.7,0,0,1-8.09,14.48c-8.8,10.21-19.89,17.91-29.75,27-1.15,1.05-2.4,2-3.6,3-7.19,6.27-14.35,12.56-21.56,18.8Q294.77,497.77,260.9,527c-16.32,14.08-32.47,28.39-49.07,42.14-18,14.94-43.28,12.57-59.82-2.9a44.34,44.34,0,0,1-14.47-30.66,40.67,40.67,0,0,1,.78-10.62,89.88,89.88,0,0,1,5-15.6c1.87-5.55,3.71-11.11,5.62-16.65,2.2-6.44,4.21-12.93,6.77-19.25,2.5-7.37,5-14.76,7.5-22.14,1.29-3.74,2.67-7.46,4-11.18,2.53-8.19,5.49-16.24,8.31-24.32,2.89-8.43,5.6-16.91,8.81-25.21,0-.16,0-.3-.07-.46.2-.41.4-.82.59-1.24q3.85-11.1,7.68-22.21,3.23-9.41,6.45-18.79c2.32-7.41,4.76-14.76,9.76-20.89,9-11.07,20.57-17.09,34.94-17.64,7.55-.28,14.61,1.6,21.62,4.07s14,4.83,20.93,7.24c.52.19,1,.46,1.52.7l21,7.08c1.14.39,2.26.81,3.4,1.22a1.06,1.06,0,0,1,.31,0l28.93,10.14c.66.23,1.3.53,1.95.8,8.91,3,18.08,5.4,26.51,9.75a37.52,37.52,0,0,1,12.58,9.85h0a38.81,38.81,0,0,1,8.68,14.63A43.71,43.71,0,0,1,391.59,405.3Z"/><path d="M610,372.1a16,16,0,0,0,16,16h24.69a16,16,0,0,1,16,16v18.45c0,8.8-4.32,18.3-9.59,21.12l-6.22,1.82a92.81,92.81,0,0,1-26,3.49c-12.79,0-24.34-2.11-34.33-6.29a66,66,0,0,1-24.71-17.52,79.61,79.61,0,0,1-15.4-27.93c-3.63-11.12-5.47-23.89-5.47-38,0-13.78,2-26.31,5.84-37.25a77.87,77.87,0,0,1,16.36-27.54,71.93,71.93,0,0,1,25.3-17.35A87,87,0,0,1,625.74,271c12.69,0,23.15,1.84,31.06,5.46C665,280.25,666,281,666,281c7,5.37,13.84,10.8,15.25,12.07s7.81-2.61,14.22-8.64l8-7.57c6.41-6,10.28-12.19,8.6-13.69s-7.16-6.12-12.18-10.28l-5.33-3.57a115.09,115.09,0,0,0-18.53-9.87,126.38,126.38,0,0,0-22.78-7.12,131.32,131.32,0,0,0-27.55-2.7c-19.25,0-37.22,3-53.42,9a122.77,122.77,0,0,0-42.38,25.8,116.14,116.14,0,0,0-27.76,41.3c-6.54,16.12-9.86,34.39-9.86,54.31,0,20.13,3.24,38.51,9.62,54.61a115.07,115.07,0,0,0,27.32,41.33,119.55,119.55,0,0,0,41.53,25.64c15.76,5.83,33.23,8.78,51.92,8.78,19.25,0,36.72-2.83,51.92-8.41a124.07,124.07,0,0,0,24.44-11.84c7.3-4.93,13.87-9.46,14.61-10.08S715,451.7,715,442.9V364.16a16,16,0,0,0-16-16H626a16,16,0,0,0-16,16Z"/><path d="M963.64,389a64.45,64.45,0,0,0-15.17-19.62,97.86,97.86,0,0,0-21.57-14.11c-7.89-3.86-10.26-4.73-10.26-4.73-8.25-3-21.77-8-30-11L876.92,336c-8.27-3-19.12-6.93-24.12-8.72s-13.81-5.21-19.57-7.6L829,317a36.79,36.79,0,0,1-9.73-8.68,16.08,16.08,0,0,1-3-10.09c0-8.22,3.67-14.28,11.54-19.07,8.86-5.39,21.38-8.12,37.21-8.12,13.21,0,25.09,1.86,35.34,5.52s15,6.73,15,6.73c7.41,4.75,14.65,9.53,16.1,10.63s7.67-3.16,13.81-9.46l7-7.14c6.15-6.3,9.78-12.62,8.07-14.05s-9.06-6.65-16.34-11.6a134.54,134.54,0,0,0-27.11-13.43c-15.75-5.69-33.21-8.58-51.88-8.58a149,149,0,0,0-39.41,5,104.78,104.78,0,0,0-31.7,14.24,72.59,72.59,0,0,0-21.43,22.38,55.31,55.31,0,0,0-8,28.79,53.26,53.26,0,0,0,6.6,26.63,67.64,67.64,0,0,0,16.28,19.29,101.67,101.67,0,0,0,21.25,13.26l7.4,3.47c8.22,3,21.71,8,30,11l10.48,3.82c8.27,3,21.28,7.8,28.92,10.65l6.11,2.37a80.78,80.78,0,0,1,14.84,7.42,27.45,27.45,0,0,1,8.54,8.49,21.62,21.62,0,0,1,2.78,11.43c0,9.05-4.14,15.95-13,21.71-9.68,6.27-24,9.45-42.66,9.45a116.57,116.57,0,0,1-41.88-7.63,112.39,112.39,0,0,1-22-11.12c-7.23-5-14.31-10.11-15.73-11.3s-7.76,2.85-14.08,9l-9.49,9.19c-6.32,6.12-10.05,12.33-8.29,13.8s9.13,6.75,16.38,11.74c0,0,16.55,11.37,34.74,17.89s38.34,9.84,59.87,9.84c16.18,0,31-1.86,44-5.52s24.57-8.94,33.89-15.56a74.24,74.24,0,0,0,22.1-23.93,60.51,60.51,0,0,0,7.89-30.06A58.33,58.33,0,0,0,963.64,389Z"/><path d="M1017.58,238.31a16,16,0,0,0-16,16v8.3a16,16,0,0,0,16,16h61.47a16,16,0,0,1,16,16V474.36a16,16,0,0,0,16,16h19.34a16,16,0,0,0,16-16V294.61a16,16,0,0,1,16-16h61.47a16,16,0,0,0,16-16v-8.3a16,16,0,0,0-16-16Z"/><path d="M1335.54,432.18c-7.16-6-15.93-9-26.06-9s-18.92,3-26.07,9c-7.55,6.3-11.38,14.63-11.38,24.74a30.8,30.8,0,0,0,11.44,24.64c7.14,5.83,15.89,8.79,26,8.79s18.85-3,26-8.8a30.78,30.78,0,0,0,11.44-24.63C1346.92,446.82,1343.09,438.5,1335.54,432.18Z"/><path d="M1595.4,389a64.45,64.45,0,0,0-15.17-19.62,97.79,97.79,0,0,0-21.56-14.11c-7.9-3.86-10.26-4.73-10.26-4.73-8.26-3-21.78-8-30.05-11l-9.67-3.51c-8.28-3-19.13-6.93-24.13-8.72s-13.8-5.21-19.57-7.6l-4.26-2.7a36.79,36.79,0,0,1-9.73-8.68,16.08,16.08,0,0,1-3-10.09c0-8.22,3.67-14.28,11.55-19.07,8.85-5.39,21.37-8.12,37.2-8.12,13.21,0,25.1,1.86,35.34,5.52s15,6.73,15,6.73c7.41,4.75,14.65,9.53,16.11,10.63s7.66-3.16,13.81-9.46l7-7.14c6.14-6.3,9.77-12.62,8.06-14.05s-9.06-6.65-16.33-11.6a134.81,134.81,0,0,0-27.12-13.43c-15.75-5.69-33.2-8.58-51.88-8.58a149,149,0,0,0-39.41,5,104.61,104.61,0,0,0-31.69,14.24,72.51,72.51,0,0,0-21.44,22.38,55.31,55.31,0,0,0-8,28.79,53.26,53.26,0,0,0,6.6,26.63,67.64,67.64,0,0,0,16.28,19.29,101.67,101.67,0,0,0,21.25,13.26l7.4,3.47c8.22,3,21.71,8,30,11l10.49,3.82c8.26,3,21.28,7.8,28.91,10.65l6.11,2.37a81.21,81.21,0,0,1,14.85,7.42,27.52,27.52,0,0,1,8.53,8.49,21.53,21.53,0,0,1,2.78,11.43c0,9.05-4.14,15.95-13,21.71-9.68,6.27-24,9.45-42.65,9.45a116.63,116.63,0,0,1-41.89-7.63,112.39,112.39,0,0,1-21.95-11.12c-7.23-5-14.3-10.11-15.73-11.3s-7.76,2.85-14.08,9l-9.49,9.19c-6.32,6.12-10,12.33-8.29,13.8s9.13,6.75,16.39,11.74c0,0,16.54,11.37,34.74,17.89s38.33,9.84,59.86,9.84c16.18,0,31-1.86,44-5.52s24.57-8.94,33.89-15.56a74.24,74.24,0,0,0,22.1-23.93,60.51,60.51,0,0,0,7.89-30.06A58.33,58.33,0,0,0,1595.4,389Z"/><path d="M1805.55,234a16,16,0,0,0-16,16V373.63c0,8.8-.47,23.19-1,32a52.67,52.67,0,0,1-3.06,12.78c-2.61,7.38-6.26,13.32-10.85,17.65a43.42,43.42,0,0,1-16.26,9.72,72.67,72.67,0,0,1-42.85,0,41.57,41.57,0,0,1-16-9.65c-4.47-4.34-8.07-10.3-10.7-17.72a52.67,52.67,0,0,1-3.06-12.78c-.58-8.78-1-23.17-1-32V250a16,16,0,0,0-16-16h-19.35a16,16,0,0,0-16,16V372.91c0,8.8.56,23.18,1.23,31.95,0,0,1.36,17.57,6.46,30.21A81.46,81.46,0,0,0,1696.34,485a148,148,0,0,0,40.56,5.35,145.9,145.9,0,0,0,40.38-5.35,82.76,82.76,0,0,0,33-18.1c9.18-8.32,16.45-19,21.61-31.83,5.1-12.65,6.45-30.22,6.45-30.22.68-8.77,1.23-23.15,1.23-31.95V250a16,16,0,0,0-16-16Z"/><path d="M2041.39,238.31a16,16,0,0,0-16,16v98.36c0,8.8.18,23.2.41,32,0,0,.25,9.8,1.57,22.88l.22,2.23c.23,2.43-2.58-.66-6.24-6.88s-10.45-17.43-15.06-24.92l-77.66-126c-4.61-7.5-15.59-13.63-24.39-13.63h-16.47a16,16,0,0,0-16,16V474.36a16,16,0,0,0,16,16H1905a16,16,0,0,0,16-16V374.92c0-8.8-.19-23.2-.43-32,0,0-.24-9.21-1.56-21.82l-.23-2.22c-.24-2.45,2.57.64,6.24,6.87s10.46,17.45,15.07,24.94l77.66,126.05c4.61,7.49,15.59,13.62,24.39,13.62h16.47a16,16,0,0,0,16-16v-220a16,16,0,0,0-16-16Z"/></svg>