<svg id="Layer_1" data-name="Layer 1" xmlns="http://www.w3.org/2000/svg" xmlns:xlink="http://www.w3.org/1999/xlink" viewBox="0 0 1280 720"><defs><style>.cls-1{fill:#fff;}.cls-2{fill:#0085ff;}.cls-3{fill:url(#linear-gradient);}</style><linearGradient id="linear-gradient" x1="215.09" y1="318.83" x2="280.22" y2="561.72" gradientUnits="userSpaceOnUse"><stop offset="0" stop-color="#b52e97" stop-opacity="0.5"/><stop offset="1" stop-color="#b92c96"/></linearGradient></defs><path class="cls-1" d="M639,359.51c16.72,0,33.45.25,50.16-.14,5.86-.13,7.62,1.47,7.54,7.45-.32,26.12-.18,52.25-.09,78.37,0,4-.49,7-4.18,9.78-48.24,36.27-130.08,48.57-186.61,7.33-74.2-54.14-68-166,11.5-212.28,52-30.3,123.54-20.14,163.32,11.42,5.44,4.31,6.87,7.16,1.22,12.58a236,236,0,0,0-21,23.21c-4.06,5.1-6.63,4.54-11.62,1C623,279.94,594,273.94,563,282.65c-39.6,11.15-62.73,49.49-56.5,91.64,5.74,38.79,40.56,68.53,79.94,68.93a106.9,106.9,0,0,0,52-12.86c6.12-3.24,10.4-21.15,6.57-26.61-2-2.87-5.08-1.64-7.67-1.66-16-.11-32.06-.43-48.07.12-6.68.23-8.28-1.86-7.9-8.17.65-11.07-3.7-25.59,1.81-32.34,5.69-7,20.8-1.67,31.78-2.13C623,359.24,631,359.51,639,359.51Z"/><path class="cls-1" d="M816.27,488.68c-18.83.29-46.7-7.48-73.46-20.19-5.16-2.46-6.34-4.7-3.6-10,5.13-9.84,7.08-23.45,14.95-29.17,8.63-6.27,19.34,5.37,29.59,7.86,26.6,6.45,53.26,10.8,80.45,4.45,13.62-3.19,21.24-11.54,22.42-22.94,1.07-10.4-4.39-18-17.59-24.33-16.46-7.88-34.43-10.73-51.87-15.27-14.49-3.77-28.69-8.21-42.08-15-50.4-25.48-42.35-89.57-8-113.87,19-13.42,40.21-18.8,62.84-19.19,31.67-.55,62.14,6,91.74,17.08,5.63,2.1,7.61,4.1,4,10.17a264.43,264.43,0,0,0-13.64,26.93c-2.5,5.47-5.1,6.76-11.14,4.41-21.19-8.22-43.14-13.39-66-13.87-8.75-.19-17.37.22-25.6,3.67-10,4.18-17.37,10.61-17.77,22.19-.38,11.27,6.64,17.87,15.87,22.47,13.49,6.74,28.13,9.83,42.73,13,18.37,4,36.13,9.65,53,18.28,23.82,12.18,36,31.55,35.46,57.89-.5,27.38-12.55,48.61-37.26,62C878,487.89,852.9,489.77,816.27,488.68Z"/><path class="cls-1" d="M1085.65,234.05c31.67,0,63.36.48,95-.29,9.75-.24,11.8,2.92,10.9,11.55a91,91,0,0,0,0,19.8c1.14,9.9-1.27,13.82-12.47,13.17-19.77-1.15-39.66,0-59.49-.5-7-.19-8.45,2-8.43,8.66.25,63,0,126,.37,189,.06,8.84-2.3,11.39-10.94,10.74a199.3,199.3,0,0,0-31.29,0c-8.9.73-10-3.1-9.93-10.69.27-62.64,0-125.29.33-187.93,0-7.47-1.25-10.09-9.45-9.83-21.21.7-42.46.06-63.68.36-5.4.07-7.25-1.32-7-6.89a279.21,279.21,0,0,0,0-29.22c-.36-6.36,1.35-8.17,7.94-8.1C1020.22,234.25,1052.94,234.05,1085.65,234.05Z"/><path class="cls-2" d="M344.85,189.23A53,53,0,0,1,341.7,204L298.44,328.75c-.09.27-.15.55-.23.82a.79.79,0,0,0-.3.05,2.82,2.82,0,0,1-.86,2.41c-.7,3.7-2.26,7.13-3.44,10.67-1.1,3.28-2.27,6.55-3.41,9.82l-.85,1.72a5.62,5.62,0,0,1-.37,2.05c-1.9,5.28-3.75,10.58-5.61,15.88L282.08,376a97.41,97.41,0,0,1-4.27,10.68A60.84,60.84,0,0,1,269,397.85,45.52,45.52,0,0,1,246,409.76a45,45,0,0,1-24.44-1.88c-4.54-1.6-9.11-3.13-13.66-4.69a7.27,7.27,0,0,0-2.66-.69c-1.5-1.22-3.58-1.06-5.13-2.14-7.28-2.5-14.54-5-21.84-7.46-2.66-.89-5.23-2.16-8.1-2.37,0-.15,0-.3-.07-.45-17.3-6-34.67-11.86-51.89-18.09-15.34-5.56-25-16.68-28.62-32.45-4.17-18.24,1.24-33.75,15.4-46q64.36-55.62,128.83-111.11c12.39-10.68,24.61-21.6,37.32-31.89,17.35-14,41.15-12.39,57.54,1.58C340,161.79,345.57,174.2,344.85,189.23Z"/><path class="cls-3" d="M379.34,405.3a41.54,41.54,0,0,1-8.09,14.48c-8.8,10.21-19.89,17.91-29.75,27-1.15,1.05-2.4,2-3.6,3-7.19,6.27-14.35,12.56-21.56,18.8q-33.82,29.25-67.69,58.5c-16.32,14.08-32.46,28.39-49.07,42.14-18,14.94-43.28,12.57-59.82-2.9a44.38,44.38,0,0,1-14.47-30.66,40.67,40.67,0,0,1,.78-10.62,89.88,89.88,0,0,1,5-15.6c1.87-5.55,3.71-11.11,5.62-16.65,2.2-6.44,4.21-12.93,6.77-19.25,2.5-7.37,5-14.76,7.5-22.14,1.29-3.74,2.67-7.46,4-11.18,2.53-8.19,5.49-16.24,8.31-24.32,2.89-8.43,5.6-16.91,8.81-25.21,0-.16,0-.3-.07-.46.2-.41.4-.82.59-1.24q3.85-11.1,7.68-22.21,3.23-9.41,6.45-18.79c2.32-7.41,4.76-14.76,9.76-20.89C205.48,316,217,310,231.4,309.4,239,309.12,246,311,253,313.47s14,4.83,20.93,7.24c.52.19,1,.46,1.52.7l21,7.08c1.14.39,2.26.81,3.4,1.22a1.06,1.06,0,0,1,.31,0l28.93,10.14c.66.23,1.31.53,1.95.8,8.91,3,18.08,5.4,26.51,9.75a37.42,37.42,0,0,1,12.58,9.85h0a38.81,38.81,0,0,1,8.68,14.63A43.71,43.71,0,0,1,379.34,405.3Z"/></svg>